<svg width="40" height="40" viewBox="0 0 40 40" fill="none" xmlns="http://www.w3.org/2000/svg">
<circle cx="20" cy="20" r="19" fill="white" stroke="#EF4B62" stroke-width="2"/>
<path d="M26.243 13H13.757C13.0261 13.0008 12.3252 13.2916 11.8083 13.8083C11.2916 14.3252 11.0009 15.0261 11 15.757V24.243C11.0008 24.9739 11.2916 25.6748 11.8083 26.1917C12.3252 26.7084 13.0261 26.9991 13.757 27H26.243C26.9739 26.9992 27.6748 26.7084 28.1917 26.1917C28.7084 25.6748 28.9991 24.9739 29 24.243V15.757C28.9992 15.0261 28.7084 14.3252 28.1917 13.8083C27.6748 13.2916 26.9739 13.0009 26.243 13ZM13.757 15H26.243C26.4437 15.0003 26.636 15.0801 26.778 15.222C26.9199 15.364 26.9997 15.5564 27 15.757V16.382L20 19.882L13 16.382V15.757C13.0003 15.5563 13.0801 15.364 13.2219 15.222C13.364 15.0801 13.5564 15.0003 13.757 15H13.757ZM26.243 25H13.757C13.5563 24.9997 13.364 24.9199 13.222 24.778C13.0801 24.636 13.0003 24.4436 13 24.243V18.618L19.5529 21.9C19.8343 22.0406 20.1654 22.0406 20.4468 21.9L26.9997 18.618V24.243C26.9994 24.4437 26.9196 24.636 26.7777 24.778C26.6357 24.9199 26.4433 24.9997 26.2427 25H26.243Z" fill="#EF4B62"/>
</svg>
