<svg width="20" height="20" viewBox="0 0 20 20" fill="none" xmlns="http://www.w3.org/2000/svg">
<path d="M1.42872 20C1.06328 20 0.69754 19.8604 0.418521 19.5814C-0.139507 19.0233 -0.139507 18.1193 0.418521 17.5613L17.5612 0.418567C18.1193 -0.139461 19.0233 -0.139461 19.5813 0.418567C20.1393 0.976595 20.1393 1.8806 19.5813 2.43863L2.43859 19.5814C2.15989 19.8607 1.79414 20 1.42872 20Z" fill="white"/>
<path d="M18.5714 20C18.206 20 17.8403 19.8603 17.5612 19.5813L0.418521 2.43859C-0.139507 1.88056 -0.139507 0.976561 0.418521 0.418524C0.97655 -0.139512 1.88055 -0.139504 2.43859 0.418524L19.5813 17.5613C20.1393 18.1193 20.1393 19.0233 19.5813 19.5813C19.3026 19.8607 18.9369 20 18.5714 20Z" fill="white"/>
</svg>
