<svg width="40" height="40" viewBox="0 0 40 40" fill="none" xmlns="http://www.w3.org/2000/svg">
<circle cx="20" cy="20" r="19" fill="white" stroke="#EF4B62" stroke-width="2"/>
<g clip-path="url(#clip0_173_198)">
<path d="M14.1007 28.6222C14.6848 28.8479 15.3495 29.0045 16.3157 29.0471C17.2777 29.0895 17.5855 29.0999 20.0298 29.0999C22.4742 29.0999 22.7818 29.0895 23.7439 29.0471C24.7101 29.0045 25.3785 28.8479 25.9593 28.622C27.1952 28.1441 28.1723 27.167 28.6501 25.9312L28.6501 25.9312C28.8758 25.347 29.0325 24.6821 29.0751 23.7159C29.1174 22.7537 29.128 22.4461 29.128 20.0018C29.128 17.558 29.1244 17.2501 29.0821 16.2877C29.0396 15.3217 28.8831 14.6534 28.6572 14.0726C28.4237 13.4549 28.0644 12.9014 27.5935 12.4412C27.1336 11.9742 26.5767 11.6113 25.9657 11.3813C25.3818 11.1556 24.717 10.999 23.7511 10.9564C22.7853 10.9106 22.4774 10.9 20.0332 10.9C17.5889 10.9 17.2813 10.9106 16.3191 10.9528L16.3191 10.9528C15.3532 10.9954 14.6849 11.1521 14.1042 11.3778C13.4864 11.6113 12.9329 11.9706 12.4727 12.4414C12.0057 12.9014 11.6429 13.4583 11.4128 14.0693C11.1871 14.6533 11.0305 15.318 10.9879 16.2839C10.9421 17.2497 10.9315 17.5576 10.9315 20.0018C10.9315 22.4461 10.9421 22.7537 10.9843 23.7159L10.9843 23.7159C11.0269 24.6818 11.1836 25.3501 11.4094 25.931C11.643 26.549 12.0059 27.1023 12.4728 27.5622C12.9328 28.0292 13.4897 28.3922 14.1007 28.6222ZM14.1007 28.6222C14.1006 28.6222 14.1005 28.6221 14.1004 28.6221L14.1364 28.5288L14.1012 28.6224C14.101 28.6223 14.1008 28.6223 14.1007 28.6222ZM12.7159 16.373C12.6736 17.3188 12.6631 17.6071 12.6631 20.0088C12.6631 22.4104 12.6736 22.6953 12.7159 23.6447C12.7545 24.5202 12.9021 24.9985 13.0252 25.315L12.7159 16.373ZM12.7159 16.373C12.7545 15.4939 12.9021 15.0192 13.0252 14.7027L12.7159 16.373ZM25.3464 12.9973C25.03 12.8742 24.5553 12.7266 23.6762 12.6878C22.7302 12.6457 22.4455 12.6351 20.0402 12.6351C17.6387 12.6351 17.3538 12.6457 16.4044 12.6878L25.3464 12.9973ZM25.3464 12.9973C25.7367 13.1414 26.0919 13.3699 26.3802 13.6688L25.3464 12.9973ZM27.2614 23.6367L27.2614 23.6367C27.2232 24.5046 27.0779 24.9685 26.9586 25.2751L26.9585 25.2754C26.6662 26.0332 26.0647 26.6348 25.3069 26.9271L25.3066 26.9272C25.0001 27.0464 24.5327 27.1917 23.6682 27.2298L23.6682 27.2298C22.721 27.272 22.4379 27.2824 20.0368 27.2824C17.6357 27.2824 17.3491 27.272 16.4053 27.2298L16.4053 27.2298C15.5374 27.1917 15.0735 27.0464 14.7669 26.9272L14.7653 26.9266C14.3887 26.7874 14.0464 26.567 13.7689 26.2793L13.7689 26.2792L13.7668 26.2772C13.4784 25.9956 13.2581 25.6565 13.119 25.2803L13.119 25.2803L13.1184 25.2787C12.9992 24.9722 12.8539 24.5046 12.8158 23.6403L12.8158 23.6403C12.7736 22.693 12.7631 22.4099 12.7631 20.0088C12.7631 17.6076 12.7736 17.321 12.8158 16.3774L12.8158 16.3773C12.8539 15.5095 12.9992 15.0456 13.1184 14.7389L13.1184 14.739L13.119 14.7374C13.2582 14.3607 13.4785 14.0187 13.7695 13.7412L13.7695 13.7412L13.772 13.7387C14.0534 13.4504 14.3925 13.23 14.7688 13.0911L14.7688 13.0911L14.7704 13.0905C15.077 12.9713 15.5445 12.826 16.4089 12.7877L16.4089 12.7877C17.3561 12.7457 17.6393 12.7351 20.0402 12.7351C22.4449 12.7351 22.728 12.7457 23.6717 12.7877L23.6718 12.7877C24.5396 12.826 25.0036 12.9713 25.3102 13.0905L25.3102 13.0905L25.3118 13.0911C25.6884 13.2301 26.0307 13.4505 26.3082 13.7383L26.3082 13.7383L26.3103 13.7404C26.5986 14.0219 26.819 14.361 26.958 14.7374L26.958 14.7374L26.9586 14.7389C27.0779 15.0455 27.2232 15.5129 27.2614 16.3774L27.2614 16.3774C27.3035 17.3246 27.3141 17.6077 27.3141 20.0088C27.3141 22.4099 27.3035 22.6895 27.2614 23.6367Z" fill="#EF4B62" stroke="#EF4B62" stroke-width="0.2"/>
<path d="M20.0336 15.2779C17.4256 15.2779 15.3097 17.3938 15.3097 20.0019C15.3097 22.61 17.4256 24.7258 20.0336 24.7258C22.6417 24.7258 24.7576 22.61 24.7576 20.0019C24.7576 17.3938 22.6417 15.2779 20.0336 15.2779ZM20.0336 22.9013C18.4327 22.9013 17.1342 21.6029 17.1342 20.0019C17.1342 18.4009 18.4327 17.1024 20.0336 17.1024C21.6346 17.1024 22.9331 18.4009 22.9331 20.0019C22.9331 21.6029 21.6346 22.9013 20.0336 22.9013Z" fill="#EF4B62" stroke="#EF4B62" stroke-width="0.2"/>
<path d="M24.8405 16.3746C25.492 16.3746 26.0201 15.8464 26.0201 15.1951C26.0201 14.5436 25.492 14.0156 24.8405 14.0156C24.1891 14.0156 23.661 14.5436 23.661 15.1951C23.661 15.8464 24.1891 16.3746 24.8405 16.3746Z" fill="#EF4B62" stroke="#EF4B62" stroke-width="0.2"/>
</g>
<defs>
<clipPath id="clip0_173_198">
<rect width="18" height="18" fill="white" transform="translate(11 11)"/>
</clipPath>
</defs>
</svg>
