<svg width="40" height="40" viewBox="0 0 40 40" fill="none" xmlns="http://www.w3.org/2000/svg">
<circle cx="20" cy="20" r="19" fill="white" stroke="#EF4B62" stroke-width="2"/>
<path d="M18.6763 14.7485L18.6895 14.7466L18.6648 14.5518C18.6284 14.2647 18.4566 13.8945 18.2287 13.5168C17.9966 13.132 17.6909 12.7147 17.3609 12.3273C17.0313 11.9402 16.6732 11.5779 16.3347 11.3056C16.1654 11.1695 15.9978 11.0532 15.8383 10.9674C15.6809 10.8828 15.5196 10.8215 15.3654 10.8086L15.3654 10.8086L15.3611 10.8083C14.8053 10.774 14.2516 10.9008 13.7662 11.1735C13.32 11.4087 12.8267 11.7225 12.3919 12.0658C11.9596 12.4071 11.5704 12.7892 11.3495 13.1631C10.5658 14.4896 10.6518 16.3161 11.4074 18.2791C12.1653 20.2485 13.6096 22.3922 15.6079 24.3905C18.6442 27.4268 22.031 29.1977 24.6335 29.1988C25.4021 29.2174 26.1616 29.0283 26.8319 28.6514L26.8319 28.6515L26.8356 28.6493C27.2095 28.4283 27.5916 28.039 27.933 27.6067C28.2764 27.1719 28.5902 26.6787 28.8254 26.2327C29.0978 25.7473 29.2246 25.1936 29.1905 24.6381L29.1905 24.6381L29.1901 24.6337C29.1773 24.4795 29.1159 24.3181 29.0313 24.1607C28.9456 24.0012 28.8292 23.8336 28.6931 23.6643C28.4208 23.3258 28.0586 22.9676 27.6715 22.638C27.284 22.308 26.8667 22.0023 26.4818 21.7701C26.1042 21.5423 25.7341 21.3706 25.4469 21.3342L18.6763 14.7485ZM18.6763 14.7485C18.6755 14.7879 18.6725 14.8318 18.6664 14.8804C18.647 15.0351 18.5965 15.2306 18.4866 15.4807C18.27 15.9735 17.8181 16.6888 16.8973 17.7384C17.6907 18.7254 18.5396 19.6666 19.4397 20.5572L19.4412 20.5587C20.3321 21.4589 21.2733 22.3079 22.2603 23.1014M18.6763 14.7485L22.2603 23.1014M22.2603 23.1014C23.3097 22.1807 24.0249 21.7288 24.5178 21.5122C24.7679 21.4022 24.9633 21.3516 25.1181 21.3322C25.2749 21.3125 25.3823 21.326 25.4467 21.3342L22.2603 23.1014ZM12.5543 13.8745C12.6584 13.6984 12.9091 13.4434 13.2556 13.1691C13.5963 12.8994 14.0105 12.6261 14.4208 12.4099L14.4209 12.41L14.4262 12.407C14.6522 12.279 14.9057 12.2077 15.1651 12.1992C15.179 12.1992 15.1927 12.1995 15.2064 12.2001C15.2423 12.216 15.2972 12.2487 15.3716 12.3048C15.4583 12.3701 15.5592 12.458 15.6697 12.5638C15.8906 12.7752 16.1406 13.0495 16.3782 13.3374C16.6158 13.6252 16.8377 13.9229 17.0034 14.1801C17.0864 14.3089 17.1535 14.4248 17.2012 14.5226C17.2475 14.6173 17.2692 14.6822 17.2756 14.7194C17.2745 14.7222 17.2708 14.7582 17.239 14.8416C17.2036 14.9348 17.1404 15.0683 17.0352 15.2464C16.825 15.6023 16.4533 16.1257 15.8196 16.8453L15.8195 16.8454C15.6105 17.0829 15.4918 17.3861 15.4836 17.7022L15.4836 17.7023C15.4777 17.9373 15.5332 18.1685 15.6429 18.3735L15.622 18.3841L15.7758 18.576C16.61 19.6168 17.5034 20.6088 18.4514 21.5471C19.3898 22.4952 20.3819 23.3885 21.4228 24.2228L21.4237 24.2234C21.6715 24.4198 21.9804 24.5228 22.2964 24.5148C22.6124 24.5068 22.9155 24.3882 23.153 24.1795L23.1532 24.1794C23.8727 23.5458 24.3972 23.1745 24.7536 22.9645C24.9319 22.8594 25.0657 22.7961 25.159 22.7605C25.2057 22.7426 25.24 22.7325 25.263 22.7273C25.2719 22.7253 25.278 22.7243 25.2817 22.7238C25.3193 22.7307 25.3833 22.7524 25.4759 22.7976C25.5736 22.8453 25.6896 22.9125 25.8184 22.9954C26.0756 23.1611 26.3733 23.3831 26.6612 23.6206C26.9491 23.8582 27.2234 24.1082 27.4349 24.3291C27.5407 24.4396 27.6285 24.5405 27.6939 24.6272C27.7487 24.6999 27.7812 24.7541 27.7975 24.79C27.8002 25.0638 27.7295 25.3335 27.5926 25.5711L27.5924 25.571L27.5889 25.5777C27.3727 25.988 27.0994 26.4022 26.8296 26.7429C26.5554 27.0895 26.3003 27.3402 26.1242 27.4444C25.3344 27.9111 23.9703 27.921 22.2677 27.2844C20.5763 26.652 18.5912 25.3949 16.5972 23.4011C14.6034 21.4073 13.3464 19.4223 12.7141 17.731C12.0776 16.0285 12.0876 14.6644 12.5543 13.8745ZM12.5543 13.8745L12.3821 13.7728M12.5543 13.8745L12.3821 13.7728M12.3821 13.7728C11.3565 15.5087 12.4357 19.5224 16.4558 23.5425L15.1621 11.9991C14.8691 12.0082 14.5827 12.0884 14.3276 12.233C13.4843 12.6772 12.6297 13.3537 12.3821 13.7728Z" fill="#EF4B62" stroke="#EF4B62" stroke-width="0.4"/>
<path d="M28.4243 19.6773L28.4186 19.6724C28.086 19.6342 27.8219 19.3623 27.8007 19.0207C27.6891 17.2479 26.9344 15.5764 25.6782 14.3202L25.8196 14.1788L25.6782 14.3202C24.4221 13.0641 22.7507 12.3094 20.9777 12.1978L20.9903 11.9982L20.9787 12.1979C20.793 12.1871 20.6193 12.1027 20.496 11.9636L20.496 11.9636C20.3728 11.8245 20.3099 11.6419 20.3214 11.4564M28.4243 19.6773L20.5571 10.9746C20.4178 11.0974 20.3327 11.2706 20.3214 11.4564M28.4243 19.6773H28.4989M28.4243 19.6773H28.4989M20.3214 11.4564C20.3214 11.4563 20.3214 11.4563 20.3214 11.4563L20.521 11.4687L20.3214 11.4565C20.3214 11.4564 20.3214 11.4564 20.3214 11.4564ZM28.4989 19.6773C28.5127 19.6773 28.5274 19.6769 28.5429 19.6759C28.7278 19.6643 28.9006 19.5799 29.0235 19.4409C29.1463 19.3019 29.209 19.1198 29.1975 18.9345L29.1975 18.9343M28.4989 19.6773L29.1975 18.9343M29.1975 18.9343C29.0646 16.821 28.165 14.8287 26.6676 13.3312L26.6676 13.3312M29.1975 18.9343L26.6676 13.3312M26.6676 13.3312C25.1703 11.834 23.1783 10.9345 21.0647 10.8015M26.6676 13.3312L21.0647 10.8015M21.0647 10.8015C20.8793 10.7894 20.6966 10.8517 20.5572 10.9746L21.0647 10.8015Z" fill="#EF4B62" stroke="#EF4B62" stroke-width="0.4"/>
<path d="M21.0833 13.2089L21.0833 13.2089C22.5535 13.3384 23.931 13.9814 24.9744 15.025C26.0179 16.0685 26.6607 17.4461 26.7901 18.9161L21.0833 13.2089ZM21.0833 13.2089C20.8986 13.1923 20.7148 13.2497 20.5724 13.3685L21.0833 13.2089ZM25.3964 19.0393L25.3964 19.0393C25.2957 17.8964 24.7958 16.8254 23.9845 16.0142C23.1732 15.203 22.1023 14.7033 20.9593 14.6028L25.3964 19.0393ZM25.3964 19.0393C25.4283 19.4001 25.7303 19.6769 26.0925 19.6773H26.0927L25.3964 19.0393ZM26.6298 19.4267L26.6296 19.4269C26.5106 19.569 26.34 19.6581 26.1554 19.6746C26.1553 19.6746 26.1552 19.6746 26.155 19.6746L26.6298 19.4267ZM26.6298 19.4267C26.7486 19.2846 26.8065 19.1011 26.7901 18.9162L26.6298 19.4267ZM20.3237 13.8436C20.3401 13.6585 20.4295 13.4876 20.5723 13.3686L20.3237 13.8436ZM20.3237 13.8436L20.5229 13.8613L20.3237 13.8436ZM20.4839 14.3547C20.484 14.3548 20.484 14.3548 20.484 14.3549C20.4841 14.3549 20.4841 14.3549 20.4841 14.355L20.6374 14.2265L20.4839 14.3547Z" fill="#EF4B62" stroke="#EF4B62" stroke-width="0.4"/>
<path d="M20.6101 15.7542C20.4598 15.8633 20.3595 16.0277 20.3304 16.2106L20.3304 16.2107C20.2894 16.4699 20.3964 16.7184 20.5888 16.87L20.5055 16.9475L20.9125 17.0111C21.4336 17.0926 21.9156 17.3376 22.2886 17.7106C22.6617 18.0837 22.9066 18.5656 22.9881 19.0867L22.9882 19.0874C23.0492 19.4686 23.4073 19.7281 23.7883 19.668L23.7884 19.668C24.1696 19.6076 24.43 19.2502 24.3704 18.8689L24.3704 18.8688C24.2431 18.0553 23.8608 17.303 23.2784 16.7208M20.6101 15.7542C20.7602 15.645 20.9475 15.6001 21.1305 15.629M20.6101 15.7542C20.6102 15.7542 20.6102 15.7541 20.6102 15.7541L20.7277 15.916L20.61 15.7543C20.61 15.7542 20.6101 15.7542 20.6101 15.7542ZM21.1305 15.629C21.1305 15.629 21.1306 15.629 21.1306 15.629L21.0995 15.8265L21.1304 15.629C21.1304 15.629 21.1305 15.629 21.1305 15.629ZM21.1305 15.629C21.944 15.7562 22.6962 16.1386 23.2784 16.7208M23.2784 16.7208L23.1373 16.862L23.2784 16.7208C23.2784 16.7208 23.2784 16.7208 23.2784 16.7208Z" fill="#EF4B62" stroke="#EF4B62" stroke-width="0.4"/>
</svg>
