<svg width="40" height="40" viewBox="0 0 40 40" fill="none" xmlns="http://www.w3.org/2000/svg">
<circle cx="20" cy="20" r="19" fill="white" stroke="#EF4B62" stroke-width="2"/>
<path d="M11.043 29L12.3082 24.3778C11.5275 23.0247 11.1172 21.491 11.118 19.9183C11.1202 15.0012 15.1215 11 20.0377 11C22.4235 11.0008 24.663 11.93 26.3475 13.616C28.0312 15.302 28.9582 17.543 28.9575 19.9265C28.9552 24.8443 24.954 28.8455 20.0377 28.8455C18.5452 28.8448 17.0745 28.4705 15.7717 27.7595L11.043 29ZM15.9907 26.1448C17.2477 26.891 18.4477 27.338 20.0347 27.3387C24.1207 27.3387 27.4492 24.0133 27.4515 19.925C27.453 15.8285 24.1402 12.5075 20.0407 12.506C15.9517 12.506 12.6255 15.8315 12.624 19.919C12.6232 21.5878 13.1122 22.8372 13.9335 24.1445L13.1842 26.8805L15.9907 26.1448ZM24.531 22.0468C24.4755 21.9537 24.327 21.8982 24.1035 21.7865C23.8807 21.6748 22.785 21.1355 22.5802 21.0612C22.3762 20.987 22.2277 20.9495 22.0785 21.173C21.93 21.3958 21.5025 21.8982 21.3727 22.0468C21.243 22.1953 21.1125 22.214 20.8897 22.1023C20.667 21.9905 19.9485 21.7557 19.0972 20.996C18.435 20.405 17.9872 19.6753 17.8575 19.4517C17.7277 19.229 17.844 19.1082 17.955 18.9973C18.0555 18.8975 18.1777 18.737 18.2895 18.6065C18.4027 18.4775 18.4395 18.3845 18.5145 18.2353C18.5887 18.0868 18.552 17.9563 18.4957 17.8445C18.4395 17.7335 17.994 16.6363 17.8087 16.19C17.6272 15.7558 17.4435 15.8142 17.307 15.8075L16.8795 15.8C16.731 15.8 16.4895 15.8555 16.2855 16.079C16.0815 16.3025 15.5055 16.841 15.5055 17.9383C15.5055 19.0355 16.3042 20.0953 16.4152 20.2437C16.527 20.3923 17.9865 22.6438 20.2222 23.609C20.754 23.8385 21.1695 23.9757 21.4927 24.0785C22.0267 24.248 22.5127 24.224 22.8967 24.167C23.325 24.1032 24.2152 23.6277 24.4012 23.1073C24.5872 22.586 24.5872 22.1398 24.531 22.0468Z" fill="#EF4B62"/>
</svg>
